<?xml version="1.0" encoding="UTF-8"?><svg id="Layer_2" xmlns="http://www.w3.org/2000/svg" viewBox="0 0 1070 507.37"><defs><style>.cls-1{fill:#fff;}</style></defs><g id="Lag_3"><path id="l" class="cls-1" d="M95.82,355.7H242.97v-86.5h-98.83c-17.34,0-31.39-14.03-31.39-31.35V0H0L.04,259.93c0,52.9,42.86,95.77,95.78,95.77h0Z"/><rect id="i" class="cls-1" x="293.53" width="101.05" height="355.7"/><path id="f" class="cls-1" d="M706.55,0h-156.92c-52.86,0-95.71,42.9-95.71,95.81V355.7h102.24v-98.11h150.39v-76.43h-150.39v-63.36c0-8.34,3.29-16.3,9.19-22.14,5.97-5.92,13.89-9.21,22.16-9.21l119.03,.07V0h0Z"/><path id="a" class="cls-1" d="M974.2,0h-123.27c-25.37,0-49.78,10.11-67.73,28.05-17.97,18.01-28.1,42.39-28.1,67.76V355.7h101.1v-98.11h112.73v98.11h101.07V95.81c0-52.9-42.81-95.81-95.8-95.81h0Zm-5.28,181.16h-112.75v-63.25c0-17.4,14.1-31.41,31.44-31.41h49.91c8.35,0,16.3,3.28,22.2,9.19,5.9,5.87,9.19,13.85,9.19,22.22v63.25h.01Z"/></g></svg>