<?xml version="1.0" encoding="utf-8"?>
<!-- Generator: Adobe Illustrator 27.0.1, SVG Export Plug-In . SVG Version: 6.00 Build 0)  -->
<svg version="1.1" id="Lag_3" xmlns="http://www.w3.org/2000/svg" xmlns:xlink="http://www.w3.org/1999/xlink" x="0px" y="0px"
	 viewBox="0 0 1070.5 507.4" style="enable-background:new 0 0 1070.5 507.4;" xml:space="preserve">
<style type="text/css">
	.st0{fill:#FFFFFF;}
	.st1{fill:#F88254;}
	.st2{font-family:'Roboto-Bold';}
	.st3{font-size:141px;}
</style>
<path id="l" class="st0" d="M96.3,355.7h147.2v-86.5h-98.8c-17.3,0-31.4-14-31.4-31.4V0H0.5l0,259.9
	C0.6,312.8,43.4,355.7,96.3,355.7L96.3,355.7L96.3,355.7z"/>
<rect id="i" x="294" y="0" class="st0" width="101" height="355.7"/>
<path id="f" class="st0" d="M707.1,0H550.2c-52.9,0-95.7,42.9-95.7,95.8v259.9h102.2v-98.1h150.4v-76.4H556.7v-63.4
	c0-8.3,3.3-16.3,9.2-22.1c6-5.9,13.9-9.2,22.2-9.2l119,0.1L707.1,0L707.1,0z"/>
<path id="a" class="st0" d="M974.7,0H851.4c-25.4,0-49.8,10.1-67.7,28c-18,18-28.1,42.4-28.1,67.8v259.9h101.1v-98.1h112.7v98.1
	h101.1V95.8C1070.5,42.9,1027.7,0,974.7,0L974.7,0z M969.4,181.2H856.7v-63.2c0-17.4,14.1-31.4,31.4-31.4H938
	c8.3,0,16.3,3.3,22.2,9.2c5.9,5.9,9.2,13.8,9.2,22.2L969.4,181.2L969.4,181.2z"/>
<text transform="matrix(1 0 0 1 538.78 469.16)" class="st1 st2 st3">Geodata</text>
</svg>
