<?xml version="1.0" encoding="UTF-8"?><svg id="Lag_3" xmlns="http://www.w3.org/2000/svg" viewBox="0 0 1070.52 507.37"><defs><style>.cls-1{fill:#f88254;font-family:Roboto-Bold, Roboto;font-size:141px;}.cls-2{fill:#036;}</style></defs><path id="l" class="cls-2" d="M96.34,355.7H243.49s0-86.5,0-86.5h-98.83c-17.34,0-31.39-14.03-31.39-31.35V0S.52,0,.52,0l.04,259.93c0,52.9,42.86,95.77,95.78,95.77h0Z"/><rect id="i" class="cls-2" x="294.05" y="0" width="101.05" height="355.7"/><path id="f" class="cls-2" d="M707.07,0h-156.92c-52.86,0-95.71,42.9-95.71,95.81V355.7s102.24,0,102.24,0v-98.11s150.39,0,150.39,0v-76.43s-150.39,0-150.39,0v-63.36c0-8.34,3.29-16.3,9.19-22.14,5.97-5.92,13.89-9.21,22.16-9.21l119.03,.07V0Z"/><path id="a" class="cls-2" d="M974.72,0h-123.27c-25.37,0-49.78,10.11-67.73,28.05-17.97,18.01-28.1,42.39-28.1,67.76V355.7s101.1,0,101.1,0v-98.11s112.73,0,112.73,0v98.11s101.07,0,101.07,0V95.81c0-52.9-42.81-95.81-95.8-95.81Zm-5.28,181.16h-112.75s0-63.25,0-63.25c0-17.4,14.1-31.41,31.44-31.41h49.91c8.35,0,16.3,3.28,22.2,9.19,5.9,5.87,9.19,13.85,9.19,22.22v63.25Z"/><text class="cls-1" transform="translate(538.78 469.16)"><tspan x="0" y="0">Geodata</tspan></text></svg>